<svg width="73" height="62" viewBox="0 0 73 62" fill="none" xmlns="http://www.w3.org/2000/svg">
<path d="M1.95527 23.141V46.2708L1.67923 46.7423C1.38019 47.2599 1.05815 47.4784 0.448562 47.6049L0.057508 47.6855L0.0230032 53.1142L0 58.543H1.78275H3.5655V54.8625V51.1819H6.4984H9.43131V54.8625V58.543H11.2141H12.9968V29.2714V-0.000167847H7.47604H1.95527V23.141ZM9.40831 25.5564L9.43131 47.6165H7.29201C5.31374 47.6165 5.16422 47.6049 5.22173 47.4094C5.49776 46.5468 5.52077 44.7065 5.52077 24.7858C5.52077 13.1347 5.55527 3.56533 5.60128 3.51932C5.64728 3.48482 6.5099 3.46181 7.52205 3.47332L9.3738 3.50782L9.40831 25.5564Z" fill="#202529"/>
<path d="M17.1406 25.844C17.1406 40.6236 17.1521 41.5207 17.3592 42.4983C18.0493 45.8338 20.2461 48.6057 23.3975 50.1009L24.5016 50.6185V53.5514C24.5016 56.7373 24.4901 56.8063 23.8461 57.4274C23.363 57.876 22.9259 57.968 21.2007 57.968H19.671V59.6932V61.4185H21.3962C24.0301 61.4185 24.9847 61.1194 26.2959 59.9002C27.124 59.1181 27.7566 57.991 27.9521 56.9443C28.0211 56.5418 28.0671 48.1341 28.0671 33.2855V10.2363H26.2844H24.5016V28.5239V46.7999L24.0761 46.5584C23.8346 46.4204 23.248 45.9143 22.7649 45.4427C22.0863 44.7641 21.7873 44.3501 21.4077 43.591C20.5566 41.8427 20.5911 42.6594 20.5911 25.522V10.2363H18.8659H17.1406V25.844Z" fill="#202529"/>
<path d="M32.2031 30.7093V51.1821H33.9284H35.6536V42.0384C35.6536 37.0122 35.6881 32.8946 35.7341 32.8946C35.9641 32.8946 37.0223 33.7227 37.6434 34.3898C38.4945 35.3099 38.9891 36.1725 39.3456 37.3802C39.5987 38.2198 39.6102 38.4154 39.6562 44.7067L39.7022 51.1821H41.4159H43.1296V44.8102C43.1296 37.8058 43.0836 37.2422 42.4395 35.563C41.6459 33.5042 39.9437 31.3994 38.1955 30.3067C37.6894 29.9847 37.2753 29.7086 37.2753 29.6741C37.2753 29.6396 37.6204 29.4096 38.0344 29.1566C40.1852 27.8569 42.0945 25.2805 42.8076 22.6812C43.0376 21.8416 43.0606 21.485 43.0951 16.0102L43.1411 10.2364H41.4159H39.7022L39.6562 15.6652C39.5987 21.6805 39.5872 21.715 38.8165 23.3023C38.3565 24.2454 37.2983 25.4531 36.4127 26.0396C36.0677 26.2697 35.7571 26.4537 35.7226 26.4537C35.6881 26.4537 35.6536 22.8077 35.6536 18.3451V10.2364H33.9284H32.2031V30.7093Z" fill="#202529"/>
<path d="M49.6867 11.9502V13.6639L51.3889 13.7099C53.1832 13.7559 53.5052 13.8364 54.0228 14.4C54.4944 14.9061 54.5174 15.1591 54.5174 19.5642V23.8083H53.5282C52.9877 23.8083 52.171 23.8658 51.7225 23.9348C49.6752 24.2454 48.019 25.6371 47.3519 27.6384C47.1103 28.3285 47.1103 28.5585 47.0643 36.6901C47.0183 45.9374 47.0643 46.823 47.6049 48.0192C48.0305 48.9508 49.0081 49.9975 49.9052 50.4805C51.0899 51.1131 51.6075 51.1821 54.9429 51.1821H57.9678L57.9448 32.6876L57.9103 14.2045L57.5308 13.4224C56.7947 11.9272 55.265 10.685 53.7353 10.363C53.4017 10.2939 52.3551 10.2364 51.4119 10.2364H49.6867V11.9502ZM54.5174 37.4952V47.6166H53.2062C51.78 47.6166 51.4349 47.4901 50.9059 46.777C50.6643 46.455 50.6643 46.3745 50.6298 37.6562C50.5953 27.7764 50.5493 28.3515 51.4464 27.7074C51.895 27.3853 51.9525 27.3738 53.2177 27.3738H54.5174V37.4952Z" fill="#202529"/>
<path d="M61.5352 11.9617V13.6869H63.2604H64.9856V32.4345V51.1821H66.7109H68.4361L68.4591 32.4575L68.4936 13.7444L70.2534 13.7099L72.0016 13.6754V11.9617V10.2364H66.7684H61.5352V11.9617Z" fill="#202529"/>
</svg>
