<svg width="30" height="31" viewBox="0 0 30 31" fill="none" xmlns="http://www.w3.org/2000/svg">
<g clip-path="url(#clip0_126_175)">
<path d="M14.2489 0.504609C11.8414 0.533672 6.66543 0.929297 3.77043 3.58523C1.61699 5.71898 0.865116 8.87367 0.776991 12.7746C0.703866 16.6615 0.615741 23.9609 7.65168 25.9484V28.9755C7.65168 28.9755 7.60762 30.1868 8.40824 30.4352C9.39449 30.7474 9.95605 29.8155 10.8936 28.8143L12.642 26.8371C17.4561 27.2374 21.1432 26.3149 21.5679 26.178C22.5448 25.8659 28.047 25.1627 28.9461 17.8624C29.8686 10.323 28.497 5.57273 26.0211 3.42398H26.0061C25.2589 2.73586 22.2561 0.547734 15.5473 0.523359C15.5473 0.523359 15.0495 0.490547 14.2489 0.504609ZM14.3314 2.6243C15.0148 2.61961 15.4301 2.64867 15.4301 2.64867C21.1086 2.66367 23.8189 4.37273 24.4582 4.94836C26.5432 6.73523 27.6176 11.0177 26.8311 17.3121C26.0839 23.4152 21.6214 23.8015 20.7954 24.0649C20.4439 24.1774 17.1964 24.978 13.1051 24.7146C13.1051 24.7146 10.0582 28.3915 9.10574 29.3384C8.9548 29.5043 8.77855 29.553 8.66605 29.5287C8.5048 29.4893 8.45605 29.2896 8.46543 29.0159L8.49449 23.9918C2.5273 22.3418 2.87887 16.1159 2.94262 12.8637C3.01574 9.61148 3.62605 6.95086 5.44293 5.14898C7.88887 2.93742 12.2839 2.6393 14.3295 2.6243H14.3314ZM14.7814 5.87555C14.7323 5.87505 14.6835 5.88428 14.638 5.90271C14.5925 5.92113 14.551 5.94838 14.5161 5.98289C14.4811 6.0174 14.4534 6.05849 14.4344 6.10378C14.4154 6.14908 14.4056 6.19768 14.4054 6.2468C14.4054 6.4568 14.5761 6.62273 14.7814 6.62273C15.7109 6.60506 16.6347 6.77158 17.4996 7.1127C18.3645 7.45381 19.1532 7.96278 19.8204 8.61024C21.1826 9.93305 21.8464 11.7105 21.8717 14.0346C21.8717 14.2399 22.0376 14.4105 22.2476 14.4105V14.3955C22.3466 14.3958 22.4416 14.3569 22.5121 14.2874C22.5825 14.2178 22.6226 14.1233 22.6236 14.0243C22.6691 12.9304 22.4917 11.8386 22.1021 10.8154C21.7126 9.79216 21.1191 8.85882 20.3576 8.07211C18.8736 6.6218 16.9929 5.87461 14.7814 5.87461V5.87555ZM9.8398 6.73523C9.57444 6.69646 9.3038 6.74973 9.07293 6.88617H9.05324C8.51724 7.20036 8.03438 7.59747 7.62262 8.06274C7.28043 8.45836 7.0948 8.85867 7.04605 9.24398C7.01699 9.47367 7.03668 9.70336 7.10512 9.92273L7.12949 9.93774C7.5148 11.0702 8.01824 12.1596 8.63324 13.1852C9.42545 14.6261 10.4004 15.9587 11.5339 17.1499L11.5676 17.1987L11.6211 17.238L11.6548 17.2774L11.6942 17.3112C12.8897 18.448 14.2255 19.4275 15.6692 20.2259C17.3192 21.124 18.3204 21.5487 18.9214 21.7249V21.7343C19.0976 21.7877 19.2579 21.8121 19.4192 21.8121C19.9313 21.7746 20.4162 21.5667 20.7964 21.2215C21.2595 20.8096 21.6522 20.3248 21.9589 19.7862V19.7768C22.2467 19.2349 22.1492 18.7221 21.7339 18.3752C20.9021 17.6482 20.0027 17.0024 19.0479 16.4468C18.4086 16.0999 17.7589 16.3099 17.4954 16.6615L16.9339 17.3693C16.6461 17.7209 16.1229 17.6721 16.1229 17.6721L16.1079 17.6815C12.207 16.6849 11.1664 12.7352 11.1664 12.7352C11.1664 12.7352 11.1176 12.198 11.4786 11.9243L12.1817 11.358C12.5182 11.0843 12.7526 10.4355 12.3917 9.79523C11.8399 8.83913 11.1955 7.9395 10.4679 7.1093C10.3089 6.91358 10.0857 6.78041 9.83793 6.73336L9.8398 6.73523ZM15.4301 7.84898C14.9323 7.84898 14.9323 8.60086 15.4348 8.60086C16.0538 8.6109 16.6648 8.74283 17.2328 8.98911C17.8008 9.23539 18.3147 9.59119 18.7451 10.0362C19.1378 10.4693 19.4395 10.9768 19.6324 11.5287C19.8253 12.0806 19.9055 12.6656 19.8682 13.249C19.87 13.3477 19.9103 13.4419 19.9805 13.5113C20.0508 13.5806 20.1454 13.6198 20.2442 13.6202L20.2592 13.6399C20.3587 13.6392 20.4538 13.5993 20.5242 13.529C20.5945 13.4587 20.6344 13.3635 20.6351 13.264C20.6689 11.7743 20.2057 10.5246 19.2973 9.52336C18.3842 8.52211 17.1101 7.96055 15.4836 7.84898H15.4301ZM16.0461 9.87023C15.5332 9.85524 15.5136 10.6221 16.0217 10.6371C17.2573 10.7009 17.8573 11.3252 17.9361 12.6096C17.9378 12.7071 17.9776 12.8001 18.047 12.8686C18.1163 12.9371 18.2098 12.9757 18.3073 12.9762H18.3223C18.3724 12.974 18.4216 12.9619 18.467 12.9405C18.5124 12.9192 18.5531 12.889 18.5867 12.8517C18.6203 12.8144 18.6462 12.7709 18.6627 12.7235C18.6793 12.6761 18.6863 12.6259 18.6832 12.5759C18.5951 10.9015 17.682 9.95836 16.0611 9.87117H16.0461V9.87023Z" fill="#202529"/>
</g>
<defs>
<clipPath id="clip0_126_175">
<rect width="30" height="30" fill="white" transform="translate(0 0.5)"/>
</clipPath>
</defs>
</svg>
