<svg width="33" height="33" viewBox="0 0 33 33" fill="none" xmlns="http://www.w3.org/2000/svg">
<path d="M16.5566 2.75008C9.04906 2.75008 2.93031 8.86883 2.93031 16.3763C2.93031 18.7826 3.56281 21.1201 4.74531 23.1826L2.82031 30.2501L10.0391 28.3526C12.0328 29.4388 14.2741 30.0163 16.5566 30.0163C24.0641 30.0163 30.1828 23.8976 30.1828 16.3901C30.1828 12.7463 28.7666 9.32258 26.1953 6.75133C24.9347 5.47798 23.4332 4.46837 21.7783 3.7814C20.1234 3.09443 18.3483 2.74384 16.5566 2.75008ZM16.5703 5.04633C19.5953 5.04633 22.4278 6.22883 24.5728 8.37383C25.6255 9.42619 26.4601 10.676 27.0288 12.0516C27.5974 13.4272 27.8889 14.9016 27.8866 16.3901C27.8866 22.6326 22.7991 27.7063 16.5566 27.7063C14.5216 27.7063 12.5278 27.1701 10.7953 26.1251L10.3828 25.8913L6.09281 27.0188L7.23406 22.8388L6.95906 22.3988C5.82323 20.5958 5.22245 18.5073 5.22656 16.3763C5.24031 10.1338 10.3141 5.04633 16.5703 5.04633ZM11.7303 10.0788C11.5103 10.0788 11.1391 10.1613 10.8228 10.5051C10.5203 10.8488 9.62656 11.6876 9.62656 13.3513C9.62656 15.0288 10.8503 16.6376 11.0016 16.8713C11.1941 17.1051 13.4216 20.5426 16.8453 22.0001C17.6566 22.3713 18.2891 22.5776 18.7841 22.7288C19.5953 22.9901 20.3378 22.9488 20.9291 22.8663C21.5891 22.7701 22.9366 22.0413 23.2253 21.2438C23.5141 20.4463 23.5141 19.7726 23.4316 19.6213C23.3353 19.4838 23.1153 19.4013 22.7716 19.2501C22.4278 19.0576 20.7503 18.2326 20.4478 18.1226C20.1316 18.0126 19.9391 17.9576 19.6778 18.2876C19.4578 18.6313 18.7978 19.4013 18.6053 19.6213C18.3991 19.8551 18.2066 19.8826 17.8766 19.7176C17.5191 19.5388 16.4191 19.1813 15.1266 18.0263C14.1091 17.1188 13.4353 16.0051 13.2291 15.6613C13.0641 15.3313 13.2153 15.1251 13.3803 14.9738C13.5316 14.8226 13.7516 14.5751 13.8891 14.3688C14.0678 14.1763 14.1228 14.0251 14.2328 13.8051C14.3428 13.5713 14.2878 13.3788 14.2053 13.2138C14.1228 13.0626 13.4353 11.3576 13.1466 10.6838C12.8716 10.0238 12.5966 10.1063 12.3766 10.0926C12.1841 10.0926 11.9641 10.0788 11.7303 10.0788Z" fill="#202529"/>
</svg>
